/* XPM */
static char *maximize_toggled_active_xpm[] = {
"32 26 2 1",
".	c #2878C8 s active_color_1",
"+	c #FFFFFF",
"................................",
"................................",
"................................",
"................................",
"................................",
"................................",
"................................",
"................................",
"................................",
"................................",
".............++++++.............",
".............++++++.............",
".............++..++.............",
".............++..++.............",
".............++++++.............",
".............++++++.............",
"................................",
"................................",
"................................",
"................................",
"................................",
"................................",
"................................",
"................................",
"................................",
"................................"};
