/* XPM */
static char *maximize_toggled_inactive_xpm[] = {
"32 26 2 1",
".	c #FAFAFA s inactive_color_1",
"+	c #AAAAAA",
"................................",
"................................",
"................................",
"................................",
"................................",
"................................",
"................................",
"................................",
".............++++++.............",
"............++....++............",
"...........++......++...........",
"...........+...++...+...........",
"...........+..++++..+...........",
"...........+..++++..+...........",
"...........+...++...+...........",
"...........++......++...........",
"............++....++............",
".............++++++.............",
"................................",
"................................",
"................................",
"................................",
"................................",
"................................",
"................................",
"................................"};

