/* XPM */
static char *menu_prelight[] = {
"20 20 2 1 ",
".	c #636E73 s active_color_1",
"+	c #FFFFFF",
"....................",
"....................",
"....................",
"....................",
"....................",
".....++++++++++.....",
".....++++++++++.....",
"....................",
"....................",
".....++++++++++.....",
".....++++++++++.....",
"....................",
"....................",
".....++++++++++.....",
".....++++++++++.....",
"....................",
"....................",
"....................",
"....................",
"...................."};
