/* XPM */
static char *menu_inactive[] = {
"20 20 2 1 ",
".	c #FAFAFA s inactive_color_1",
"+	c #AAAAAA",
"....................",
"....................",
"....................",
"....................",
"....................",
"....................",
".....++++++++++.....",
"....................",
"....................",
"....................",
".....++++++++++.....",
"....................",
"....................",
"....................",
".....++++++++++.....",
"....................",
"....................",
"....................",
"....................",
"...................."};
